<?xml version="1.0" encoding="UTF-8" standalone="no"?>
<!-- Created with Inkscape (http://www.inkscape.org/) -->

<svg
   xmlns:dc="http://purl.org/dc/elements/1.1/"
   xmlns:cc="http://creativecommons.org/ns#"
   xmlns:rdf="http://www.w3.org/1999/02/22-rdf-syntax-ns#"
   xmlns:svg="http://www.w3.org/2000/svg"
   xmlns="http://www.w3.org/2000/svg"
   xmlns:sodipodi="http://sodipodi.sourceforge.net/DTD/sodipodi-0.dtd"
   xmlns:inkscape="http://www.inkscape.org/namespaces/inkscape"
   width="150mm"
   height="50mm"
   viewBox="0 0 150 50"
   version="1.1"
   id="svg8"
   inkscape:version="0.92.4 (5da689c313, 2019-01-14)"
   sodipodi:docname="logo.svg">
  <defs
     id="defs2">
    <clipPath
       clipPathUnits="userSpaceOnUse"
       id="clipPath863">
      <rect
         style="fill:#008000;fill-opacity:1;stroke-width:0.19259524"
         id="rect865"
         width="40.624962"
         height="39.555889"
         x="64.603394"
         y="30.78862" />
    </clipPath>
  </defs>
  <sodipodi:namedview
     id="base"
     pagecolor="#ffffff"
     bordercolor="#666666"
     borderopacity="1.0"
     inkscape:pageopacity="0.0"
     inkscape:pageshadow="2"
     inkscape:zoom="0.98994949"
     inkscape:cx="137.82822"
     inkscape:cy="41.252772"
     inkscape:document-units="mm"
     inkscape:current-layer="layer1"
     showgrid="false"
     inkscape:window-width="1366"
     inkscape:window-height="705"
     inkscape:window-x="-8"
     inkscape:window-y="407"
     inkscape:window-maximized="1"
     width="37mm" />
  <metadata
     id="metadata5">
    <rdf:RDF>
      <cc:Work
         rdf:about="">
        <dc:format>image/svg+xml</dc:format>
        <dc:type
           rdf:resource="http://purl.org/dc/dcmitype/StillImage" />
        <dc:title></dc:title>
      </cc:Work>
    </rdf:RDF>
  </metadata>
  <g
     inkscape:label="Capa 1"
     inkscape:groupmode="layer"
     id="layer1"
     transform="translate(0,-247)">
    <g
       id="g893"
       transform="translate(-30.894468,185.24632)">
      <path
         inkscape:connector-curvature="0"
         id="path869"
         d="M 38.590602,104.91516 C 35.758962,104.00192 33.85931,100.368 33.20346,94.609905 l -0.118393,-1.03943 2.141451,-0.53289 c 1.177798,-0.29308 2.277342,-0.5711 2.443437,-0.61782 0.25541,-0.0718 0.319993,0.18524 0.418732,1.66681 0.145463,2.18265 0.543047,3.36972 1.446835,4.31979 0.576217,0.60573 0.832498,0.73926 1.418897,0.73926 0.979222,0 1.884209,-0.60976 2.358207,-1.58892 0.58838,-1.21543 0.725257,-4.08813 0.876559,-18.39658 l 0.132392,-12.52045 h 2.456683 2.456683 l -0.132384,12.23697 c -0.215842,19.95154 -0.397283,21.422555 -2.963937,24.030015 -1.445035,1.46801 -2.948017,2.1271 -5.052531,2.21566 -1.094907,0.0461 -1.923584,-0.0227 -2.495489,-0.20716 z"
         style="fill:#005300;fill-opacity:1;stroke-width:0.1889881" />
      <path
         inkscape:connector-curvature="0"
         id="path871"
         d="m 54.849364,85.727465 v -19.08779 l 2.976562,0.008 c 4.386766,0.012 8.880372,0.30022 9.993202,0.64097 2.113468,0.64715 4.053562,2.73759 5.014687,5.40329 0.412544,1.1442 0.440865,1.49359 0.436211,5.38138 -0.0041,3.3987 -0.06668,4.382 -0.342969,5.38616 -0.537885,1.95493 -1.558488,3.84478 -2.604971,4.82365 -1.637877,1.53204 -2.962659,1.89073 -7.771455,2.10419 l -2.787576,0.12374 v 7.15204 7.152035 h -2.456844 -2.456847 z m 10.894391,-1.6955 c 0.915638,-0.40283 2.146461,-1.862 2.622888,-3.10951 0.430673,-1.1277 0.326832,-4.24032 -0.173,-5.18572 -0.497356,-0.94072 -1.824249,-2.31304 -2.51864,-2.60487 -0.413425,-0.17375 -1.45723,-0.25559 -3.260043,-0.25559 h -2.651905 l -2.65e-4,5.81139 -2.64e-4,5.81138 2.598856,-0.0612 c 2.002192,-0.0471 2.778731,-0.14033 3.382373,-0.40589 z"
         style="fill:#005300;fill-opacity:1;stroke-width:0.1889881" />
      <path
         inkscape:connector-curvature="0"
         id="path873"
         d="m 74.249545,105.24509 c -0.491646,-0.0736 -0.528301,-0.13225 -0.424905,-0.68039 0.06224,-0.32994 1.261195,-5.022205 2.664352,-10.427265 1.403156,-5.40506 2.909416,-11.20935 3.347246,-12.89843 l 0.796052,-3.07106 h 1.733424 1.73343 l 0.37229,1.37016 c 3.78629,13.93496 6.89699,25.673765 6.82299,25.747775 -0.0518,0.0518 -0.72523,0.0149 -1.49652,-0.0819 -1.8228,-0.22888 -2.02278,-0.46738 -2.80104,-3.34047 -0.33452,-1.23497 -0.69497,-2.521795 -0.801,-2.859615 l -0.19278,-0.6142 h -3.65787 c -3.321308,0 -3.666668,0.0304 -3.753409,0.33072 -0.05254,0.18191 -0.315302,1.26622 -0.583909,2.409595 -0.742807,3.16189 -1.012481,3.87052 -1.550858,4.07521 -0.466434,0.17734 -1.200187,0.19059 -2.207493,0.0399 z M 85.087464,94.450915 c 0,-0.25986 -1.68479,-7.01044 -2.09463,-8.39272 -0.63609,-2.1454 -0.7356,-1.97681 -2.14731,3.63802 -0.588014,2.33873 -1.113008,4.40106 -1.166652,4.58296 -0.08975,0.30431 0.122396,0.33073 2.655522,0.33073 1.51419,0 2.75307,-0.0715 2.75307,-0.15899 z"
         style="fill:#000041;fill-opacity:1;stroke-width:0.1889881" />
      <path
         inkscape:connector-curvature="0"
         id="path875"
         d="m 97.912244,105.46391 c -1.29589,-0.39897 -2.66766,-1.72672 -3.46782,-3.35654 -0.76729,-1.56288 -1.50587,-4.292635 -1.34012,-4.953055 0.14776,-0.58872 1.34024,-0.97887 2.22037,-0.72645 0.62983,0.18063 0.7122,0.34709 0.99971,2.02033 0.15368,0.89433 1.23926,2.140645 2.27573,2.612695 1.01656,0.46298 2.423516,0.44818 3.423716,-0.036 1.04357,-0.50519 1.99071,-1.937085 2.09661,-3.169665 0.14187,-1.65135 -0.81933,-2.56938 -4.598276,-4.39177 -3.47507,-1.67584 -4.92663,-3.20632 -5.64054,-5.9472 -0.49264,-1.89137 -0.23393,-4.77094 0.571,-6.35544 1.77384,-3.49182 5.994636,-4.49061 9.159426,-2.16744 1.59472,1.17063 3.06283,3.91832 3.07681,5.75854 0.007,0.96301 -0.21344,1.1576 -1.31793,1.16166 -0.97698,0.004 -1.77897,-0.61562 -2.41468,-1.86436 -0.6073,-1.19291 -1.16615,-1.6635 -2.26901,-1.91066 -1.909456,-0.42792 -3.685216,0.54962 -3.994646,2.19903 -0.32918,1.75469 0.67772,2.79193 4.553346,4.69056 3.21118,1.57312 4.37263,2.51662 5.12739,4.16525 1.12431,2.45581 1.01388,6.30972 -0.25364,8.851345 -0.67712,1.35778 -1.88171,2.56388 -3.17286,3.17685 -0.96518,0.45821 -1.35893,0.53638 -2.64583,0.52531 -0.831546,-0.007 -1.906486,-0.1345 -2.388756,-0.28298 z"
         style="fill:#000041;fill-opacity:1;stroke-width:0.1889881" />
      <path
         inkscape:connector-curvature="0"
         id="path877"
         d="m 125.7147,107.14508 c -0.257,-0.1738 -0.86389,-0.6806 -1.34864,-1.12623 -1.12235,-1.03175 -1.63052,-1.15658 -2.97042,-0.72969 -0.58404,0.18608 -1.65722,0.37658 -2.38482,0.42332 -3.19802,0.20547 -5.91927,-1.97965 -7.56593,-6.075295 -0.92946,-2.3118 -1.09772,-3.7977 -0.98025,-8.6567 0.14799,-6.12202 0.76568,-8.25687 3.11025,-10.74958 1.66848,-1.77391 2.94971,-2.34644 5.25092,-2.34644 1.53901,0 1.82537,0.0593 2.94362,0.60983 0.79941,0.39355 1.62143,1.01104 2.31773,1.74104 2.31566,2.42772 3.1474,5.66327 3.1365,12.20121 -0.006,3.50049 -0.27192,5.24572 -1.12374,7.37054 -0.92353,2.303695 -0.88268,2.589795 0.55377,3.878595 1.33354,1.19645 1.3441,1.25318 0.54846,2.94582 -0.42513,0.90443 -0.74579,1.01515 -1.48745,0.51358 z m -5.63118,-6.25132 c -0.20375,-0.28585 -0.55948,-0.68981 -0.79051,-0.897695 -0.66256,-0.59618 -0.7959,-1.16526 -0.54047,-2.30666 0.12529,-0.55984 0.28045,-1.05042 0.3448,-1.0902 0.0644,-0.0398 0.8751,0.56932 1.80164,1.35355 l 1.68462,1.42586 0.41249,-1.22281 c 0.6626,-1.96428 0.9094,-3.82593 0.90853,-6.85319 -7.9e-4,-2.92 -0.19887,-4.30473 -0.87522,-6.11959 -1.03338,-2.7729 -3.70275,-3.96787 -6.14497,-2.75086 -1.72629,0.86024 -2.65074,2.81871 -3.08299,6.53133 -0.4112,3.53187 0.059,7.81686 1.08615,9.89864 0.94027,1.905675 1.98301,2.540585 4.18334,2.547185 l 1.38304,0.004 -0.37045,-0.51972 z"
         style="fill:#000041;fill-opacity:1;stroke-width:0.1889881" />
      <path
         inkscape:connector-curvature="0"
         id="path879"
         d="m 135.54605,105.59419 c -2.05634,-0.67138 -3.4831,-2.33932 -4.22975,-4.94474 -0.4231,-1.476395 -0.6516,-5.053295 -0.77214,-12.087165 -0.0579,-3.37816 -0.15265,-7.09886 -0.21056,-8.26823 l -0.1053,-2.12611 h 1.89433 1.89432 l 0.0565,10.06361 0.0565,10.06362 0.44908,0.99356 c 0.247,0.54646 0.73897,1.248075 1.09326,1.559155 0.59178,0.51958 0.75839,0.56558 2.04843,0.56558 1.29004,0 1.45665,-0.046 2.04843,-0.56558 0.35429,-0.31108 0.84626,-1.012695 1.09326,-1.559155 l 0.44908,-0.99356 0.0565,-10.06362 0.0565,-10.06361 h 1.62589 1.62589 l -0.11666,10.15811 c -0.0642,5.58696 -0.20556,10.75342 -0.31422,11.48103 -0.24791,1.659945 -1.12984,3.493955 -2.04465,4.251935 -1.35064,1.11909 -2.60283,1.57633 -4.47994,1.63587 -0.93549,0.0297 -1.91405,-0.0156 -2.17459,-0.1007 z"
         style="fill:#000041;fill-opacity:1;stroke-width:0.1889881" />
      <path
         inkscape:connector-curvature="0"
         id="path881"
         d="m 149.34341,91.775085 v -13.60714 h 6.3311 6.3311 v 1.88988 1.88988 h -4.8192 -4.81919 v 3.77976 3.77976 h 4.6302 4.63021 v 1.88988 1.88989 h -4.63021 -4.6302 v 4.06324 4.063235 h 5.10268 5.10267 v 1.98438 1.98437 h -6.61458 -6.61458 z"
         style="fill:#000041;fill-opacity:1;stroke-width:0.1889881" />
      <path
         inkscape:connector-curvature="0"
         id="path883"
         d="m 166.35234,91.775085 v -13.60714 h 1.5119 1.51191 v 11.62277 11.622755 h 4.6302 4.63021 v 1.98438 1.98437 h -6.14211 -6.14211 z"
         style="fill:#000041;fill-opacity:1;stroke-width:0.1889881" />
    </g>
  </g>
</svg>
